<svg enable-background="new 0 0 210 205" viewBox="0 0 210 205" xmlns="http://www.w3.org/2000/svg"><circle cx="105" cy="102.2" fill="#008cd3" r="100.3"/><path d="m23.6 80.1h158.2v37h-158.2z" fill="none"/><g fill="#fff"><path d="m154.3 65.5-20.6-20.6c-.4-.4-1-.7-1.6-.7h-67.2c-3.7 0-6.8 3-6.8 6.8v4.3c-11.1 4.4-19 15.2-19 27.9 0 1.3 1 2.3 2.3 2.3h27.6c1.3 0 2.3-1 2.3-2.3v-27.6c0-1.3-1-2.3-2.3-2.3-2.2 0-4.3.2-6.4.7v-2.9c0-1.2 1-2.3 2.3-2.3h65v13.8c0 3.7 3 6.8 6.8 6.8h13.8v84c0 1.2-1 2.3-2.3 2.3h-83.3c-1.2 0-2.3-1-2.3-2.3v-19.4c0-1.3-1-2.3-2.3-2.3s-2.3 1-2.3 2.3v19.4c0 3.7 3 6.8 6.8 6.8h83.3c3.7 0 6.8-3 6.8-6.8v-86.3c.1-.6-.2-1.1-.6-1.6zm-87.6-7.5v23h-23c1.1-12.2 10.8-21.9 23-23zm69.9 6.9c-1.2 0-2.3-1-2.3-2.3v-10.6l12.9 12.9z"/><path d="m61.9 124.2c-.4-.4-1-.7-1.6-.7s-1.2.2-1.6.7c-.4.4-.7 1-.7 1.6s.2 1.2.7 1.6c.4.4 1 .7 1.6.7s1.2-.2 1.6-.7c.4-.4.7-1 .7-1.6s-.2-1.2-.7-1.6z"/><path d="m77.1 61.4c-1.3 0-2.3 1-2.3 2.3v25.4h-25.4c-1.3 0-2.3 1-2.3 2.3 0 16.5 13.4 29.9 29.9 29.9s30-13.5 30-29.9-13.4-30-29.9-30zm2.2 4.7c5.3.5 10.1 2.6 14 5.8l-14 14zm-2.2 50.6c-13.2 0-24.1-10.2-25.3-23.1h25.3c.6 0 1.2-.3 1.6-.7l17.9-17.9c3.7 4.4 5.9 10.1 5.9 16.3-.1 14-11.4 25.4-25.4 25.4z"/><path d="m138.2 115.7c-3.7 0-6.8 3-6.8 6.8 0 .9.2 1.8.5 2.6l-13 13c-.9-.4-1.9-.7-3-.7-1 0-2 .2-2.9.7l-8.7-8.7c.3-.8.5-1.6.5-2.5 0-3.7-3-6.8-6.8-6.8-3.7 0-6.8 3-6.8 6.8 0 1 .2 2 .6 2.8l-8.3 8.3c-.9-.4-1.9-.7-2.9-.7-3.7 0-6.8 3-6.8 6.8s3 6.8 6.8 6.8c3.7 0 6.8-3 6.8-6.8 0-1-.2-2-.7-2.9l8.3-8.3c.9.5 1.9.7 3 .7 1.2 0 2.4-.3 3.4-.9l8.4 8.4c-.4.9-.7 1.9-.7 3 0 3.7 3 6.8 6.8 6.8 3.7 0 6.8-3 6.8-6.8 0-1-.2-2-.6-2.9l12.9-12.9c1 .5 2 .8 3.2.8 3.7 0 6.8-3 6.8-6.8 0-3.5-3-6.6-6.8-6.6zm-57.5 30.9c-1.2 0-2.3-1-2.3-2.3s1-2.3 2.3-2.3c.6 0 1.2.2 1.6.6.4.4.6 1 .6 1.6.1 1.4-1 2.4-2.2 2.4zm17.4-17.3c-1.2 0-2.3-1-2.3-2.3s1-2.3 2.3-2.3c1.2 0 2.3 1 2.3 2.3s-1.1 2.3-2.3 2.3zm17.9 17.3c-1.2 0-2.3-1-2.3-2.3s1-2.3 2.3-2.3 2.3 1 2.3 2.3-1.1 2.3-2.3 2.3zm22.2-21.8c-1.2 0-2.3-1-2.3-2.3s1-2.3 2.3-2.3c1.2 0 2.3 1 2.3 2.3s-1 2.3-2.3 2.3z"/><path d="m126.9 97.5h-11.9c-1.3 0-2.3 1-2.3 2.3s1 2.3 2.3 2.3h11.9c1.3 0 2.3-1 2.3-2.3s-1-2.3-2.3-2.3z"/><path d="m138.8 98.1c-.4-.4-1-.7-1.6-.7s-1.2.2-1.6.7c-.4.4-.7 1-.7 1.6s.2 1.2.7 1.6c.4.4 1 .7 1.6.7s1.2-.2 1.6-.7c.4-.4.7-1 .7-1.6 0-.5-.3-1.1-.7-1.6z"/><path d="m142.6 75.8h-27.6c-1.3 0-2.3 1-2.3 2.3s1 2.3 2.3 2.3h27.7c1.3 0 2.3-1 2.3-2.3s-1.1-2.3-2.4-2.3z"/><path d="m142.6 86.6h-27.6c-1.3 0-2.3 1-2.3 2.3s1 2.3 2.3 2.3h27.7c1.3 0 2.3-1 2.3-2.3s-1.1-2.3-2.4-2.3z"/></g></svg>